<?xml version="1.0" encoding="UTF-8" standalone="no"?>
<svg
   xmlns:dc="http://purl.org/dc/elements/1.1/"
   xmlns:cc="http://creativecommons.org/ns#"
   xmlns:rdf="http://www.w3.org/1999/02/22-rdf-syntax-ns#"
   xmlns:svg="http://www.w3.org/2000/svg"
   xmlns="http://www.w3.org/2000/svg"
   xmlns:sodipodi="http://sodipodi.sourceforge.net/DTD/sodipodi-0.dtd"
   xmlns:inkscape="http://www.inkscape.org/namespaces/inkscape"
   viewBox="0 0 280 320"
   width="64"
   height="64"
   version="1.1"
   id="svg6"
   sodipodi:docname="d20-pink.svg"
   inkscape:version="0.92.4 (5da689c313, 2019-01-14)">
  <metadata
     id="metadata12">
    <rdf:RDF>
      <cc:Work
         rdf:about="">
        <dc:format>image/svg+xml</dc:format>
        <dc:type
           rdf:resource="http://purl.org/dc/dcmitype/StillImage" />
        <dc:title></dc:title>
      </cc:Work>
    </rdf:RDF>
  </metadata>
  <defs
     id="defs10" />
  <sodipodi:namedview
     pagecolor="#ffffff"
     bordercolor="#666666"
     borderopacity="1"
     objecttolerance="10"
     gridtolerance="10"
     guidetolerance="10"
     inkscape:pageopacity="0"
     inkscape:pageshadow="2"
     inkscape:window-width="2560"
     inkscape:window-height="1417"
     id="namedview8"
     showgrid="false"
     inkscape:zoom="3.6875"
     inkscape:cx="32"
     inkscape:cy="32"
     inkscape:window-x="1912"
     inkscape:window-y="-8"
     inkscape:window-maximized="1"
     inkscape:current-layer="g4" />
  <g
     transform="translate(-246.69456,-375.66745)"
     id="g4">
    <path
       d="m 379.93,375.668 c -0.57,0.019 -1.226,0.228 -1.585,0.731 l -80.673,96.527 c -1.342,1.681 -1.433,2.056 0.366,2.073 l 161.59,-0.427 c 2.221,-0.182 2.23,-0.07 0.792,-1.951 l -79.27,-96.527 c -0.164,-0.254 -0.649,-0.44 -1.22,-0.426 z m 15.489,8.598 72.746,88.478 c 0.974,1.182 1.212,1.249 2.927,0.427 l 38.354,-17.562 c 2.513,-1.134 2.165,-1.366 0.487,-2.5 z m -33.965,3.232 c -0.034,-0.072 -0.625,0.37 -1.952,1.281 l -105.612,69.513 33.05,15.001 c 1.724,0.568 2.239,0.599 3.354,-0.793 l 69.698,-83.234 c 0.981,-1.137 1.495,-1.696 1.462,-1.768 z m 153.602,72.258 c -0.328,0.023 -0.846,0.212 -1.646,0.548 l -39.392,17.989 c -1.398,0.635 -1.311,1.49 -0.792,2.561 l 45.793,116.162 -3.292,-135.309 c -0.101,-1.479 -0.123,-1.99 -0.671,-1.951 z m -264.154,3.598 -4.208,131.651 38.782,-113.907 c 0.573,-1.682 0.559,-1.767 -0.61,-2.317 l -33.964,-15.427 z m 210.859,17.073 -165.249,0.427 c -2.361,-0.035 -2.264,-0.033 -1.098,1.89 l 83.905,141.529 c 1.417,2.159 1.265,2.092 2.744,-0.121 L 462.675,482.38 c 0.708,-1.127 1.212,-1.914 -0.914,-1.953 z m 6.586,3.72 c -0.152,0.064 -0.318,0.639 -0.793,1.524 l -81.16,142.809 c -0.887,1.508 -1.097,2.048 1.036,1.708 l 128.845,-17.744 c 2.044,-0.467 1.982,-1.197 1.281,-3.232 l -48.6,-123.479 c -0.321,-1.183 -0.456,-1.65 -0.609,-1.586 z m -178.176,1.342 c -0.158,0.113 -0.3,0.715 -0.609,1.585 l -41.16,121.162 c -0.701,2.573 -0.78,3.541 1.829,4.024 l 123.113,17.805 c 2.328,0.351 2.03,-0.822 1.463,-1.951 L 291.024,486.769 c -0.526,-1.067 -0.695,-1.394 -0.853,-1.28 z m -32.013,133.845 120.796,68.538 c 1.564,0.949 1.929,0.604 1.707,-1.036 l -2.561,-48.05 c -0.07,-1.551 -0.28,-2.183 -1.89,-2.439 L 258.158,619.334 Z m 249.764,0.121 -122.625,16.952 c -1.618,0.238 -1.326,1.032 -1.342,2.195 l 2.622,48.903 c 0.135,1.483 0.091,2.017 1.89,1.098 z"
       id="path2"
       inkscape:connector-curvature="0"
       style="fill:#ff80bf;fill-opacity:1" />
  </g>
</svg>
