<svg width="26" height="26" viewBox="0 0 26 26" fill="none" xmlns="http://www.w3.org/2000/svg">
<path d="M13 0.71875L12.375 1.21875L4.125 7.625L3.875 7.84375L3.78125 8.15625L1.03125 18.25L0.8125 19.0312L13 25.125L25.1875 19.0312L24.9688 18.25L22.2188 8.15625L22.125 7.84375L21.875 7.625L13.625 1.21875L13 0.71875ZM12 4.0625V7H8.21875L12 4.0625ZM14 4.0625L17.7812 7H14V4.0625ZM6.0625 9H11L7.40625 13.7812L6.0625 9ZM15 9H19.9375L18.5938 13.7812L15 9ZM13 9.6875L17 15H9L13 9.6875ZM4.8125 12L5.8125 15.5L3.5625 16.625L4.8125 12ZM21.1875 12L22.4375 16.625L20.1875 15.5L21.1875 12ZM9 17H17L13 22.3125L9 17ZM6.6875 17.2812L9.625 21.1875L4.25 18.5L6.6875 17.2812ZM19.3125 17.2812L21.75 18.5L16.375 21.1875L19.3125 17.2812Z" fill="#FF80BF"/>
</svg>
